<svg width="671" height="124" viewBox="0 0 671 124" fill="none" xmlns="http://www.w3.org/2000/svg">
<g clip-path="url(#clip0_8031_62653)">
<path d="M160.83 120.01H125.58V111.81C124.65 113.83 122.79 115.7 120.01 117.43C117.22 119.15 114.71 120.01 112.47 120.01H16.9698C14.3998 120.01 11.8198 119.34 9.21977 118C6.61977 116.66 4.50977 114.79 2.86977 112.38C1.22977 109.98 0.379766 107.27 0.329766 104.26C0.269766 98.47 0.209766 91.14 0.129766 82.29C0.0497656 73.44 0.00976562 68.76 0.00976562 68.27C0.00976562 61.66 1.76977 56.45 5.29977 52.65C8.81977 48.85 12.9398 46.95 17.6398 46.95H107.97C112.12 46.95 115.76 48.02 118.87 50.15C121.98 52.28 124.22 54.41 125.59 56.54V45.84C125.59 43.61 124.92 41.33 123.58 39.02C122.24 36.71 120.34 34.79 117.88 33.26C115.42 31.73 112.55 30.97 109.27 30.97H1.14977V2.45996H123.04C128.18 2.45996 133.04 3.71996 137.63 6.22996C142.22 8.73996 146.26 12.01 149.76 16.03C153.26 20.05 155.98 24.21 157.92 28.53C159.86 32.85 160.83 36.7 160.83 40.09V120.01ZM118.86 83.45C118.86 81.97 118.31 80.62 117.22 79.39C116.13 78.16 114.77 77.18 113.16 76.44C111.55 75.7 110.25 75.33 109.27 75.33H42.6298C39.5698 75.33 37.4398 76.37 36.2398 78.44C35.0398 80.52 34.4398 82.13 34.4398 83.28C34.4398 85.69 35.2198 87.62 36.7798 89.1C38.3398 90.58 39.9098 91.31 41.4898 91.31H111.17C112.7 91.31 114.37 90.5 116.17 88.89C117.97 87.28 118.88 85.46 118.88 83.44L118.86 83.45Z" fill="#752028"/>
<path d="M378.06 119.85H344.12V46.9698C344.12 45.7698 343.61 44.7198 342.6 43.8098C341.59 42.9098 340.65 42.4598 339.77 42.4598C337.36 42.4598 335.67 43.5298 334.69 45.6598L293.95 119.85H261.82L219.85 45.3398C219.63 44.4098 219.17 43.5898 218.46 42.8798C217.75 42.1698 217 41.6398 216.21 41.2798C215.42 40.9298 214.8 40.7498 214.37 40.7498C213.33 40.7498 212.4 41.2998 211.58 42.3898C210.76 43.4798 210.35 44.6298 210.35 45.8298V119.85H177.07V29.3498C177.07 24.9798 178.14 20.9498 180.27 17.2598C182.4 13.5698 185.08 10.4698 188.3 7.95977C191.52 5.44977 194.94 3.48977 198.55 2.09977C202.16 0.709766 205.3 0.00976562 207.98 0.00976562C215.63 0.00976562 222.04 1.95977 227.2 5.86977C232.36 9.77977 237.76 16.4898 243.39 25.9898L277 86.5698L311.59 25.8298C316.07 17.4098 320.96 11.0098 326.26 6.60977C331.56 2.20977 338.12 0.00976562 345.93 0.00976562C350.52 0.00976562 354.82 0.909766 358.84 2.71977C362.86 4.52977 366.31 6.95977 369.21 10.0198C372.11 13.0798 374.31 16.4398 375.81 20.0998C377.31 23.7598 378.06 27.3098 378.06 30.7598V119.87V119.85Z" fill="#752028"/>
<path d="M431.43 119.85H397.66V2.45996H431.43V119.85Z" fill="#752028"/>
<path d="M612.92 94.3502C612.92 97.7402 611.87 101.74 609.76 106.36C607.66 110.98 604.24 115.02 599.51 118.49C594.78 121.96 588.78 123.7 581.52 123.7C574.26 123.7 568.49 122.68 564.88 120.63C561.27 118.58 557.42 114.8 553.32 109.28L496.27 40.4202C494.47 38.0202 493.03 36.4702 491.97 35.7902C490.9 35.1102 489.58 34.7702 487.99 34.7702C486.95 34.7702 485.89 35.1702 484.79 35.9602C483.7 36.7502 483.15 37.8602 483.15 39.2802V119.86H449.87V26.3102C449.87 24.6702 450.4 22.4402 451.47 19.6302C452.53 16.8202 454.3 13.8902 456.76 10.8602C459.22 7.83023 462.48 5.26023 466.56 3.15023C470.63 1.05023 475.54 -0.00976562 481.27 -0.00976562C488.54 -0.00976562 494.23 1.21023 498.36 3.64023C502.48 6.07023 505.81 8.71023 508.32 11.5502L565.78 79.1802C567.58 81.6402 569.11 83.2102 570.37 83.8902C571.63 84.5702 573.1 84.9102 574.8 84.9102C576.77 84.9102 577.98 84.3202 578.45 83.1502C578.91 81.9802 579.15 80.3202 579.15 78.1902V2.46023H612.92V94.3502Z" fill="#752028"/>
<path d="M670.05 119.85H636.28V2.45996H670.05V119.85Z" fill="#752028"/>
</g>
<defs>
<clipPath id="clip0_8031_62653">
<rect width="670.05" height="123.7" fill="white"/>
</clipPath>
</defs>
</svg>
