<svg width="673" height="125" viewBox="0 0 673 125" fill="none" xmlns="http://www.w3.org/2000/svg">
<g clip-path="url(#clip0_8031_62659)">
<path d="M161.99 120.619H126.74V112.419C125.81 114.439 123.95 116.309 121.17 118.039C118.38 119.759 115.87 120.619 113.63 120.619H18.1302C15.5602 120.619 12.9802 119.949 10.3802 118.609C7.78016 117.269 5.67016 115.399 4.03016 112.989C2.39016 110.589 1.54016 107.879 1.49016 104.869C1.43016 99.0793 1.37016 91.7493 1.29016 82.8993C1.20016 74.0593 1.16016 69.3793 1.16016 68.8893C1.16016 62.2793 2.92016 57.0693 6.45016 53.2693C9.97016 49.4693 14.0902 47.5693 18.7902 47.5693H109.12C113.27 47.5693 116.91 48.6393 120.02 50.7693C123.13 52.8993 125.37 55.0293 126.74 57.1593V46.4593C126.74 44.2293 126.07 41.9493 124.73 39.6393C123.39 37.3293 121.49 35.4093 119.03 33.8793C116.57 32.3493 113.7 31.5893 110.42 31.5893H2.30016V3.06934H124.2C129.34 3.06934 134.2 4.32934 138.79 6.83934C143.38 9.34934 147.42 12.6193 150.92 16.6393C154.42 20.6593 157.14 24.8193 159.08 29.1393C161.02 33.4593 161.99 37.3093 161.99 40.6993V120.619ZM120.02 84.0593C120.02 82.5793 119.47 81.2293 118.38 79.9993C117.29 78.7693 115.93 77.7893 114.32 77.0493C112.71 76.3093 111.41 75.9393 110.43 75.9393H43.7802C40.7202 75.9393 38.5902 76.9793 37.3902 79.0493C36.1902 81.1293 35.5902 82.7393 35.5902 83.8893C35.5902 86.2993 36.3702 88.2293 37.9302 89.7093C39.4902 91.1893 41.0602 91.9193 42.6402 91.9193H112.32C113.85 91.9193 115.52 91.1093 117.32 89.4993C119.12 87.8993 120.02 86.0793 120.02 84.0593Z" fill="white"/>
<path d="M379.22 120.449H345.28V47.5791C345.28 46.3791 344.77 45.3291 343.76 44.4191C342.75 43.5191 341.81 43.0691 340.93 43.0691C338.52 43.0691 336.83 44.1391 335.85 46.2691L295.11 120.459H262.98L221.01 45.9491C220.79 45.0191 220.33 44.1991 219.62 43.4891C218.91 42.7791 218.16 42.2491 217.37 41.8891C216.58 41.5391 215.96 41.3591 215.53 41.3591C214.49 41.3591 213.56 41.9091 212.74 42.9991C211.92 44.0891 211.51 45.2391 211.51 46.4391V120.459H178.23V29.9591C178.23 25.5891 179.3 21.5591 181.43 17.8691C183.56 14.1791 186.24 11.0791 189.46 8.56914C192.68 6.05914 196.1 4.09914 199.71 2.70914C203.32 1.31914 206.46 0.619141 209.14 0.619141C216.79 0.619141 223.2 2.56914 228.36 6.47914C233.52 10.3891 238.92 17.0991 244.55 26.5991L278.16 87.1791L312.75 26.4391C317.23 18.0191 322.12 11.6191 327.42 7.21914C332.72 2.81914 339.28 0.619141 347.09 0.619141C351.68 0.619141 355.98 1.51914 360 3.32914C364.02 5.12914 367.47 7.56914 370.37 10.6291C373.27 13.6891 375.47 17.0491 376.97 20.7091C378.47 24.3691 379.22 27.9191 379.22 31.3691V120.449Z" fill="white"/>
<path d="M432.581 120.449H398.811V3.06934H432.581V120.449Z" fill="white"/>
<path d="M614.071 94.9596C614.071 98.3496 613.02 102.35 610.91 106.97C608.81 111.59 605.39 115.63 600.66 119.1C595.93 122.57 589.931 124.31 582.671 124.31C575.181 124.31 569.641 123.29 566.031 121.24C562.421 119.19 558.57 115.41 554.47 109.89L497.421 41.0296C495.621 38.6296 494.181 37.0796 493.121 36.3996C492.051 35.7196 490.731 35.3796 489.141 35.3796C488.101 35.3796 487.041 35.7796 485.941 36.5696C484.851 37.3596 484.301 38.4696 484.301 39.8896V120.47H451.021V26.9196C451.021 25.2796 451.551 23.0496 452.621 20.2396C453.681 17.4296 455.451 14.4996 457.911 11.4696C460.371 8.43961 463.631 5.86961 467.711 3.75961C471.781 1.65961 476.691 0.599609 482.421 0.599609C489.691 0.599609 495.381 1.81961 499.511 4.24961C503.631 6.67961 506.961 9.31961 509.471 12.1596L566.931 79.7896C568.731 82.2496 570.261 83.8196 571.521 84.4996C572.781 85.1796 574.251 85.5196 575.951 85.5196C577.921 85.5196 579.13 84.9296 579.6 83.7596C580.06 82.5896 580.301 80.9296 580.301 78.7996V3.06961H614.071V94.9596Z" fill="white"/>
<path d="M671.21 120.449H637.44V3.06934H671.21V120.449Z" fill="white"/>
</g>
<defs>
<clipPath id="clip0_8031_62659">
<rect width="672.36" height="124.91" fill="white"/>
</clipPath>
</defs>
</svg>
